#!OML:ASF H:\Dans Jumps\Project 1\Capture day 1\Session 1\subject.ASF
:FULLY-SPECIFIED
:DEGREES
485
root 0.239077 17.7435 4.35844 9.49137 1.27591 -1.43968
lowerback -4.90348 0.142722 0.715667
upperback 1.08802 0.0955057 1.3163
thorax 3.87199 0.0483738 0.964071
lowerneck -11.982 -0.812496 -2.59706
upperneck 32.1297 -1.21549 2.18939
head 12.6804 -0.563087 1.12603
rclavicle 3.72721e-015 -5.1684e-015
rhumerus -26.2867 -12.8277 -80.269
rradius 26.9642
rwrist 29.9045
rhand -24.7598 -29.1502
rfingers 7.12502
rthumb 1.7436 -59.1229
lclavicle 3.72721e-015 -5.1684e-015
lhumerus -26.7606 -7.16116 89.4652
lradius 34.2906
lwrist 15.6688
lhand -27.0775 -8.55928
lfingers 7.12502
lthumb -0.494946 21.4199
rfemur -11.9201 -3.93019 20.2936
rtibia 19.004
rfoot -14.3485 0.884666
rtoes 20.4738
lfemur -10.8487 6.20793 -17.1241
ltibia 16.3126
lfoot -10.2074 7.19596
ltoes 0.363738
486
root 0.241298 17.7434 4.35369 9.46695 1.26658 -1.46506
lowerback -4.9263 0.12805 0.724359
upperback 1.07206 0.0744173 1.33876
thorax 3.86858 0.0378355 0.980676
lowerneck -11.9974 -0.801607 -2.60147
upperneck 32.0742 -1.19536 2.18176
head 12.6599 -0.555685 1.12607
rclavicle -9.93923e-016 8.94531e-015
rhumerus -26.2705 -13.0302 -80.232
rradius 26.9226
rwrist 29.9341
rhand -24.7277 -29.1649
rfingers 7.12502
rthumb 1.77454 -59.1373
lclavicle -9.93923e-016 8.94531e-015
lhumerus -26.538 -6.96351 89.4236
lradius 33.9677
lwrist 15.3877
lhand -27.0439 -8.50987
lfingers 7.12502
lthumb -0.462503 21.4694
rfemur -11.9146 -3.90191 20.3137
rtibia 19.0064
rfoot -14.3344 0.853565
rtoes 20.4247
lfemur -10.8426 6.17789 -17.1034
ltibia 16.3265
lfoot -10.2001 7.23811
ltoes 0.383708
487
root 0.243766 17.7434 4.3489 9.43651 1.2573 -1.48557
lowerback -4.93626 0.116125 0.730404
upperback 1.0573 0.0575322 1.35637
thorax 3.85913 0.0293824 0.994052
lowerneck -12.0107 -0.79441 -2.59595
upperneck 32.0143 -1.18153 2.16913
head 12.6373 -0.550487 1.12152
rclavicle 3.47873e-015 8.94531e-015
rhumerus -26.2625 -13.243 -80.1932
rradius 26.8791
rwrist 29.9785
rhand -24.686 -29.1458
rfingers 7.12502
rthumb 1.8148 -59.1178
lclavicle 3.47873e-015 8.94531e-015
lhumerus -26.3339 -6.76154 89.3808
lradius 33.6398
lwrist 15.128
lhand -27.0489 -8.45841
lfingers 7.12502
lthumb -0.467331 21.5208
rfemur -11.9021 -3.8785 20.3271
rtibia 19.008
rfoot -14.3211 0.827179
rtoes 20.3845
lfemur -10.8276 6.14683 -17.0883
ltibia 16.3359
lfoot -10.1935 7.28098
ltoes 0.410678
488
root 0.246162 17.7431 4.34398 9.39937 1.24333 -1.5101
lowerback -4.93475 0.102786 0.737019
upperback 1.04562 0.0387906 1.37602
thorax 3.84642 0.019994 1.00903
lowerneck -12.0337 -0.784706 -2.57564
upperneck 31.9548 -1.16198 2.1388
head 12.6166 -0.543234 1.10838
rclavicle -2.38542e-015 -6.16232e-015
rhumerus -26.253 -13.4363 -80.1631
rradius 26.8367
rwrist 30.0308
rhand -24.6441 -29.1316
rfingers 7.12502
rthumb 1.85526 -59.1033
lclavicle -2.38542e-015 -6.16232e-015
lhumerus -26.1478 -6.5467 89.3353
lradius 33.3111
lwrist 14.9006
lhand -27.0673 -8.41698
lfingers 7.12502
lthumb -0.485051 21.5622
rfemur -11.8835 -3.85534 20.3441
rtibia 19.0107
rfoot -14.3095 0.807533
rtoes 20.348
lfemur -10.8023 6.12636 -17.0681
ltibia 16.3396
lfoot -10.1881 7.31828
ltoes 0.4291
489
root 0.248641 17.7429 4.33899 9.36125 1.22367 -1.51176
lowerback -4.93089 0.0856039 0.716751
upperback 1.03862 0.0167589 1.39121
thorax 3.83725 0.00840954 1.03424
lowerneck -12.063 -0.771311 -2.54105
upperneck 31.8884 -1.13513 2.09147
head 12.5939 -0.533196 1.08719
rclavicle -2.68359e-015 -9.14409e-015
rhumerus -26.2315 -13.6149 -80.14
rradius 26.7834
rwrist 30.095
rhand -24.6035 -29.1123
rfingers 7.12502
rthumb 1.89448 -59.0836
lclavicle -2.68359e-015 -9.14409e-015
lhumerus -25.9698 -6.32111 89.2878
lradius 32.9768
lwrist 14.7047
lhand -27.0957 -8.37808
lfingers 7.12502
lthumb -0.512497 21.6011
rfemur -11.8666 -3.84674 20.3343
rtibia 19.0188
rfoot -14.3006 0.807899
rtoes 20.3246
lfemur -10.77 6.11579 -17.0744
ltibia 16.3341
lfoot -10.1828 7.34709
ltoes 0.441014
490
root 0.25103 17.7425 4.33384 9.31886 1.19861 -1.51487
lowerback -4.92096 0.0663486 0.69375
upperback 1.03542 -0.00790259 1.40832
thorax 3.82866 -0.00456675 1.06276
lowerneck -12.0995 -0.755563 -2.49496
upperneck 31.8181 -1.10358 2.0312
head 12.5709 -0.521357 1.05966
rclavicle -9.93923e-016 7.7526e-015
rhumerus -26.1956 -13.7749 -80.1265
rradius 26.7091
rwrist 30.1643
rhand -24.5714 -29.0948
rfingers 7.12502
rthumb 1.9255 -59.0658
lclavicle -9.93923e-016 7.7526e-015
lhumerus -25.8008 -6.09203 89.2389
lradius 32.636
lwrist 14.5388
lhand -27.1246 -8.33627
lfingers 7.12502
lthumb -0.54041 21.6428
rfemur -11.8473 -3.84088 20.3253
rtibia 19.0305
rfoot -14.2931 0.818614
rtoes 20.3132
lfemur -10.7306 6.12458 -17.0787
ltibia 16.3237
lfoot -10.18 7.3612
ltoes 0.457094
491
root 0.253316 17.742 4.32852 9.27401 1.16506 -1.51933
lowerback -4.9081 0.0465176 0.668779
upperback 1.03553 -0.0332674 1.42672
thorax 3.82191 -0.0179539 1.09368
lowerneck -12.1378 -0.738927 -2.45263
upperneck 31.7423 -1.06991 1.97127
head 12.5462 -0.509001 1.03321
rclavicle -1.73937e-015 -9.74045e-015
rhumerus -26.151 -13.9155 -80.1227
rradius 26.6214
rwrist 30.2335
rhand -24.5456 -29.0884
rfingers 7.12502
rthumb 1.95045 -59.0592
lclavicle -1.73937e-015 -9.74045e-015
lhumerus -25.6421 -5.86593 89.189
lradius 32.2923
lwrist 14.3957
lhand -27.1481 -8.28038
lfingers 7.12502
lthumb -0.563167 21.6986
rfemur -11.8287 -3.8385 20.317
rtibia 19.0458
rfoot -14.2857 0.843172
rtoes 20.3042
lfemur -10.6858 6.14137 -17.0815
ltibia 16.3094
lfoot -10.1744 7.37491
ltoes 0.468433
492
root 0.255497 17.7414 4.32314 9.23116 1.12652 -1.5265
lowerback -4.89594 0.0273568 0.644674
upperback 1.03531 -0.0578045 1.44514
thorax 3.81522 -0.0309089 1.1242
lowerneck -12.1695 -0.722946 -2.41599
upperneck 31.6621 -1.03831 1.91866
head 12.5183 -0.497334 1.01027
rclavicle -2.18663e-015 -3.97569e-015
rhumerus -26.1079 -14.0416 -80.1259
rradius 26.5266
rwrist 30.3059
rhand -24.5175 -29.088
rfingers 7.12502
rthumb 1.97756 -59.0586
lclavicle -2.18663e-015 -3.97569e-015
lhumerus -25.4981 -5.6503 89.1384
lradius 31.9461
lwrist 14.2641
lhand -27.1635 -8.2189
lfingers 7.12502
lthumb -0.578004 21.7601
rfemur -11.8111 -3.83615 20.3114
rtibia 19.0575
rfoot -14.2749 0.875233
rtoes 20.3015
lfemur -10.6466 6.1758 -17.0819
ltibia 16.3018
lfoot -10.1746 7.37673
ltoes 0.478868
493
root 0.257625 17.7408 4.3176 9.19108 1.08422 -1.53923
lowerback -4.88117 0.0102536 0.626065
upperback 1.03219 -0.0798482 1.46329
thorax 3.80405 -0.0424903 1.15155
lowerneck -12.2017 -0.708902 -2.39271
upperneck 31.5872 -1.01078 1.88045
head 12.4932 -0.487235 0.994686
rclavicle -1.73937e-015 -7.7526e-015
rhumerus -26.0705 -14.1696 -80.1289
rradius 26.4223
rwrist 30.3941
rhand -24.4743 -29.0801
rfingers 7.12502
rthumb 2.01925 -59.0503
lclavicle -1.73937e-015 -7.7526e-015
lhumerus -25.3689 -5.44836 89.088
lradius 31.593
lwrist 14.1283
lhand -27.1769 -8.15172
lfingers 7.12502
lthumb -0.59097 21.8272
rfemur -11.7963 -3.82946 20.312
rtibia 19.0661
rfoot -14.2619 0.907991
rtoes 20.2952
lfemur -10.6132 6.20534 -17.0761
ltibia 16.3003
lfoot -10.1742 7.38716
ltoes 0.487653
494
root 0.25963 17.7402 4.3118 9.15716 1.04038 -1.56518
lowerback -4.86821 -0.00398452 0.621515
upperback 1.02624 -0.0989829 1.48276
thorax 3.79093 -0.0523177 1.17261
lowerneck -12.2324 -0.696493 -2.37674
upperneck 31.5141 -0.987271 1.85299
head 12.4688 -0.478408 0.983969
rclavicle 4.47266e-016 -2.38542e-015
rhumerus -26.0477 -14.2817 -80.1363
rradius 26.3319
rwrist 30.4821
rhand -24.4113 -29.0794
rfingers 7.12502
rthumb 2.08014 -59.049
lclavicle 4.47266e-016 -2.38542e-015
lhumerus -25.2486 -5.26258 89.0379
lradius 31.2261
lwrist 13.9774
lhand -27.1782 -8.09885
lfingers 7.12502
lthumb -0.592196 21.8801
rfemur -11.7879 -3.81406 20.328
rtibia 19.0708
rfoot -14.246 0.936201
rtoes 20.2866
lfemur -10.5914 6.23057 -17.0556
ltibia 16.3066
lfoot -10.1718 7.40478
ltoes 0.491441
495
root 0.261866 17.7397 4.30591 9.13093 0.997574 -1.59003
lowerback -4.86106 -0.0127597 0.620294
upperback 1.02047 -0.110962 1.49773
thorax 3.78115 -0.058462 1.18776
lowerneck -12.2648 -0.690093 -2.37343
upperneck 31.4431 -0.974891 1.8436
head 12.446 -0.473657 0.980848
rclavicle 2.28602e-015 1.98785e-015
rhumerus -26.0412 -14.3866 -80.1401
rradius 26.2601
rwrist 30.5607
rhand -24.3211 -29.0273
rfingers 7.12502
rthumb 2.16729 -58.9961
lclavicle 2.28602e-015 1.98785e-015
lhumerus -25.1231 -5.09315 88.9904
lradius 30.8352
lwrist 13.7924
lhand -27.1892 -8.04693
lfingers 7.12502
lthumb -0.602832 21.932
rfemur -11.7882 -3.80038 20.3427
rtibia 19.0744
rfoot -14.2282 0.965722
rtoes 20.2841
lfemur -10.5797 6.23663 -17.0372
ltibia 16.3171
lfoot -10.1674 7.43864
ltoes 0.506453
496
root 0.264164 17.7392 4.29995 9.10976 0.955126 -1.61717
lowerback -4.85961 -0.0199782 0.62291
upperback 1.01654 -0.121219 1.51257
thorax 3.77649 -0.0636677 1.20077
lowerneck -12.3078 -0.683924 -2.37532
upperneck 31.3786 -0.962437 1.83787
head 12.4283 -0.468968 0.9801
rclavicle 1.68967e-015 1.43125e-014
rhumerus -26.0456 -14.4605 -80.1491
rradius 26.209
rwrist 30.6186
rhand -24.2152 -28.9709
rfingers 7.12502
rthumb 2.26955 -58.9386
lclavicle 1.68967e-015 1.43125e-014
lhumerus -24.9924 -4.92454 88.943
lradius 30.423
lwrist 13.5641
lhand -27.1912 -7.98598
lfingers 7.12502
lthumb -0.604738 21.9929
rfemur -11.7944 -3.78855 20.3602
rtibia 19.078
rfoot -14.2105 0.99552
rtoes 20.2841
lfemur -10.5745 6.23215 -17.0167
ltibia 16.3302
lfoot -10.1613 7.48191
ltoes 0.516972
